<?xml version="1.0" standalone="no"?>
<!DOCTYPE svg PUBLIC "-//W3C//DTD SVG 20010904//EN"
 "http://www.w3.org/TR/2001/REC-SVG-20010904/DTD/svg10.dtd">
<svg version="1.0" xmlns="http://www.w3.org/2000/svg"
 width="264.000000pt" height="264.000000pt" viewBox="0 0 264.000000 264.000000"
 preserveAspectRatio="xMidYMid meet">
<metadata>
Created by potrace 1.11, written by Peter Selinger 2001-2013
</metadata>
<g transform="translate(0.000000,264.000000) scale(0.100000,-0.100000)"
fill="#000000" stroke="none">
<path d="M0 1320 l0 -900 1320 0 1320 0 0 900 0 900 -1320 0 -1320 0 0 -900z
m885 500 c153 -24 259 -99 322 -228 38 -75 38 -77 38 -196 0 -103 -4 -130 -24
-184 -29 -76 -92 -150 -166 -192 -102 -58 -128 -63 -402 -67 l-253 -5 0 441 0
441 213 0 c116 0 239 -4 272 -10z m848 -142 c69 -84 167 -204 219 -267 l93
-114 3 266 2 267 110 0 110 0 0 -153 c0 -85 -3 -283 -7 -440 l-6 -287 -103 0
-103 0 -218 262 -218 262 -3 -262 -2 -263 -108 3 -107 3 -3 438 -2 437 108 0
109 0 126 -152z"/>
<path d="M615 1478 c-3 -84 -5 -193 -3 -243 l3 -90 120 0 c166 0 230 29 280
128 31 64 34 161 6 222 -43 95 -131 135 -297 135 l-102 0 -7 -152z"/>
</g>
</svg>
